<svg width="64" height="45" viewBox="0 0 64 45" fill="none" xmlns="http://www.w3.org/2000/svg">
<rect width="64" height="45" rx="22.5" fill="#BAF246"/>
<path d="M32 35.4217C32.1427 35.3478 32.2777 35.2456 32.3987 35.1128L44.0375 22.3336C45.5582 20.664 44.3736 17.9829 42.1153 17.9829H36.4364C35.6632 17.9829 35.0364 17.3561 35.0364 16.5829V10.4028C35.0364 9.1238 33.4625 8.51452 32.6013 9.46013L32 10V35.4217Z" fill="#0B192C"/>
<path d="M32 10L31 11L19.6829 23.3017C18.1623 24.9713 19.3468 27.6524 21.6051 27.6524H27.2841C28.0573 27.6524 28.6841 28.2792 28.6841 29.0524V35.2324C28.6841 36.5115 30.2579 37.1207 31.1191 36.1751L32 35.5V10Z" fill="url(#paint0_linear_1205_107)"/>
<defs>
<linearGradient id="paint0_linear_1205_107" x1="26.5" y1="10" x2="33.5" y2="35" gradientUnits="userSpaceOnUse">
<stop stop-color="#0B192C"/>
<stop offset="1" stop-color="#0B192C" stop-opacity="0"/>
</linearGradient>
</defs>
</svg>
