<svg width="64" height="45" viewBox="0 0 64 45" fill="none" xmlns="http://www.w3.org/2000/svg">
<rect width="64" height="45" rx="22.5" fill="#0B192C"/>
<path d="M14.1593 23.8187L16.3416 28.1833C17.358 30.216 19.4356 31.5 21.7082 31.5H31.5C32.6046 31.5 33.5 30.6046 33.5 29.5V15.7021C33.5 13.715 30.9161 12.9439 29.8271 14.606L24.8441 22.2116C24.3466 22.971 23.4 23.3 22.5387 23.0129L16.5806 21.0269C14.8903 20.4634 13.3625 22.225 14.1593 23.8187Z" fill="#BAF246"/>
<path d="M49.3407 23.8187L47.1584 28.1833C46.142 30.216 44.0644 31.5 41.7918 31.5H32C30.8954 31.5 30 30.6046 30 29.5V15.7021C30 13.715 32.5839 12.9439 33.6729 14.606L38.6559 22.2116C39.1534 22.971 40.1 23.3 40.9613 23.0129L46.9194 21.0269C48.6097 20.4634 50.1375 22.225 49.3407 23.8187Z" fill="url(#paint0_linear_1205_102)"/>
<defs>
<linearGradient id="paint0_linear_1205_102" x1="41" y1="13" x2="32.5" y2="28.5" gradientUnits="userSpaceOnUse">
<stop stop-color="#BAF246"/>
<stop offset="1" stop-color="#BAF246" stop-opacity="0"/>
</linearGradient>
</defs>
</svg>
