<svg width="48" height="48" viewBox="0 0 48 48" fill="none" xmlns="http://www.w3.org/2000/svg">
<path d="M27.6544 4.06727L32.2578 7.60242C32.814 8.02952 33.4239 8.38164 34.0718 8.64974L39.435 10.8688C41.946 11.9077 43.4452 14.5045 43.0895 17.1985L42.3296 22.9527C42.2378 23.6479 42.2378 24.3521 42.3296 25.0473L43.0895 30.8015C43.4452 33.4955 41.946 36.0923 39.435 37.1312L34.0718 39.3502C33.4239 39.6183 32.814 39.9705 32.2578 40.3976L27.6544 43.9327C25.4992 45.5878 22.5008 45.5878 20.3456 43.9327L15.7422 40.3976C15.186 39.9705 14.5761 39.6183 13.9282 39.3502L8.56496 37.1312C6.05402 36.0923 4.55479 33.4955 4.91053 30.8015L5.67038 25.0473C5.76218 24.3521 5.76218 23.6479 5.67038 22.9527L4.91053 17.1985C4.55479 14.5045 6.05403 11.9077 8.56497 10.8688L13.9282 8.64974C14.5761 8.38164 15.186 8.02952 15.7422 7.60243L20.3456 4.06727C22.5008 2.41219 25.4992 2.41219 27.6544 4.06727Z" stroke="url(#paint0_linear_233_71)" stroke-width="2"/>
<path d="M27.6544 4.06727L32.2578 7.60242C32.814 8.02952 33.4239 8.38164 34.0718 8.64974L39.435 10.8688C41.946 11.9077 43.4452 14.5045 43.0895 17.1985L42.3296 22.9527C42.2378 23.6479 42.2378 24.3521 42.3296 25.0473L43.0895 30.8015C43.4452 33.4955 41.946 36.0923 39.435 37.1312L34.0718 39.3502C33.4239 39.6183 32.814 39.9705 32.2578 40.3976L27.6544 43.9327C25.4992 45.5878 22.5008 45.5878 20.3456 43.9327L15.7422 40.3976C15.186 39.9705 14.5761 39.6183 13.9282 39.3502L8.56496 37.1312C6.05402 36.0923 4.55479 33.4955 4.91053 30.8015L5.67038 25.0473C5.76218 24.3521 5.76218 23.6479 5.67038 22.9527L4.91053 17.1985C4.55479 14.5045 6.05403 11.9077 8.56497 10.8688L13.9282 8.64974C14.5761 8.38164 15.186 8.02952 15.7422 7.60243L20.3456 4.06727C22.5008 2.41219 25.4992 2.41219 27.6544 4.06727Z" stroke="url(#paint1_linear_233_71)" stroke-width="2"/>
<path d="M21.5637 13.0709C23.0005 11.9675 24.9995 11.9675 26.4363 13.0709L28.7011 14.8101C28.9792 15.0237 29.2841 15.1997 29.6081 15.3338L32.2467 16.4255C33.9207 17.1181 34.9202 18.8493 34.683 20.6453L34.3092 23.4763C34.2633 23.8239 34.2633 24.176 34.3092 24.5236L34.683 27.3546C34.9202 29.1506 33.9207 30.8818 32.2467 31.5744L29.6081 32.6661C29.2841 32.8002 28.9792 32.9762 28.7011 33.1898L26.4363 34.929C24.9995 36.0324 23.0005 36.0324 21.5637 34.929L19.2989 33.1898C19.0209 32.9762 18.7159 32.8002 18.3919 32.6661L15.7533 31.5744C14.0794 30.8818 13.0799 29.1506 13.317 27.3546L13.6909 24.5236C13.7368 24.176 13.7368 23.8239 13.6909 23.4763L13.317 20.6453C13.0799 18.8493 14.0794 17.1181 15.7533 16.4255L18.3919 15.3338C18.7159 15.1997 19.0209 15.0237 19.2989 14.8101L21.5637 13.0709Z" fill="#0B192C"/>
<path d="M19.6841 24.8874L24.4164 19.6915V22.045C24.4164 22.5421 24.8193 22.945 25.3164 22.945H28.242C28.2701 22.945 28.2866 22.9524 28.2979 22.9602C28.3113 22.9694 28.3245 22.9844 28.3335 23.0046C28.3424 23.0249 28.3446 23.0448 28.3424 23.0609C28.3405 23.0744 28.3349 23.0916 28.3159 23.1124L23.5837 28.3084V25.9548C23.5837 25.4577 23.1807 25.0548 22.6837 25.0548H19.758C19.73 25.0548 19.7135 25.0474 19.7022 25.0396C19.6888 25.0304 19.6755 25.0154 19.6666 24.9952C19.6576 24.9749 19.6554 24.955 19.6577 24.9389C19.6596 24.9254 19.6652 24.9082 19.6841 24.8874Z" fill="#BAF246" stroke="#BAF246"/>
<defs>
<linearGradient id="paint0_linear_233_71" x1="43.2" y1="-2.54642e-06" x2="24" y2="20" gradientUnits="userSpaceOnUse">
<stop stop-color="#0B192C"/>
<stop offset="1" stop-color="#0B192C" stop-opacity="0"/>
</linearGradient>
<linearGradient id="paint1_linear_233_71" x1="4.8" y1="38.4" x2="17.6" y2="24" gradientUnits="userSpaceOnUse">
<stop stop-color="#0B192C"/>
<stop offset="1" stop-color="#0B192C" stop-opacity="0"/>
</linearGradient>
</defs>
</svg>
