<svg width="48" height="48" viewBox="0 0 48 48" fill="none" xmlns="http://www.w3.org/2000/svg">
<g clip-path="url(#clip0_233_76)">
<path d="M46 6.87832V26.8182C46 32.2644 42.8416 37.2164 37.9032 39.5128L24.5059 45.7428C24.1151 45.9245 23.6639 45.9237 23.2739 45.7405L10.0491 39.5302C5.13663 37.2233 2 32.285 2 26.8579V6.87832C2 5.63647 2.86716 4.56321 4.08131 4.30235C17.2106 1.48152 30.7894 1.48152 43.9187 4.30235C45.1328 4.56321 46 5.63647 46 6.87832Z" stroke="url(#paint0_linear_233_76)" stroke-width="2"/>
<path d="M46 6.87832V26.8182C46 32.2644 42.8416 37.2164 37.9032 39.5128L24.5059 45.7428C24.1151 45.9245 23.6639 45.9237 23.2739 45.7405L10.0491 39.5302C5.13663 37.2233 2 32.285 2 26.8579V6.87832C2 5.63647 2.86716 4.56321 4.08131 4.30235C17.2106 1.48152 30.7894 1.48152 43.9187 4.30235C45.1328 4.56321 46 5.63647 46 6.87832Z" stroke="url(#paint1_linear_233_76)" stroke-width="2"/>
<path d="M28.6444 30.8201C32.3984 29.082 35 25.3022 35 20.9191C35 14.8887 30.0751 10 24 10C17.9249 10 13 14.8887 13 20.9191C13 25.2064 15.4891 28.9165 19.1111 30.7033V35.5712C19.1111 35.9014 19.4669 36.1073 19.7506 35.9413L23.129 33.9635C23.5919 33.6926 24.1637 33.6926 24.6266 33.9635L28.005 35.9413C28.2887 36.1073 28.6444 35.9014 28.6444 35.5712V30.8201Z" fill="#0B192C"/>
<path d="M20.1987 22.3633L24.3182 17.3879V19.5729C24.3182 20.07 24.7211 20.4729 25.2182 20.4729H27.7243C27.8089 20.4729 27.8553 20.5715 27.8013 20.6367L23.6818 25.6121V23.4271C23.6818 22.93 23.2789 22.5271 22.7818 22.5271H20.2757C20.1911 22.5271 20.1447 22.4285 20.1987 22.3633Z" fill="#BAF246" stroke="#BAF246"/>
</g>
<defs>
<linearGradient id="paint0_linear_233_76" x1="0.999998" y1="56" x2="24" y2="30" gradientUnits="userSpaceOnUse">
<stop stop-color="#0B192C"/>
<stop offset="1" stop-color="#0B192C" stop-opacity="0"/>
</linearGradient>
<linearGradient id="paint1_linear_233_76" x1="51" y1="-1" x2="28" y2="28" gradientUnits="userSpaceOnUse">
<stop stop-color="#0B192C"/>
<stop offset="1" stop-color="#0B192C" stop-opacity="0"/>
</linearGradient>
<clipPath id="clip0_233_76">
<rect width="48" height="48" fill="white"/>
</clipPath>
</defs>
</svg>
