<svg width="20" height="20" viewBox="0 0 20 20" fill="none" xmlns="http://www.w3.org/2000/svg">
<path fill-rule="evenodd" clip-rule="evenodd" d="M7.293 14.7069C7.10553 14.5194 7.00021 14.2651 7.00021 13.9999C7.00021 13.7348 7.10553 13.4804 7.293 13.2929L10.586 9.99992L7.293 6.70692C7.11084 6.51832 7.01005 6.26571 7.01233 6.00352C7.0146 5.74132 7.11977 5.49051 7.30518 5.3051C7.49059 5.11969 7.7414 5.01452 8.0036 5.01224C8.2658 5.00997 8.5184 5.11076 8.707 5.29292L12.707 9.29292C12.8945 9.48045 12.9998 9.73475 12.9998 9.99992C12.9998 10.2651 12.8945 10.5194 12.707 10.7069L8.707 14.7069C8.51947 14.8944 8.26516 14.9997 8 14.9997C7.73484 14.9997 7.48053 14.8944 7.293 14.7069Z" fill="black"/>
</svg>
