<svg width="38" height="38" viewBox="0 0 48 48" fill="none" xmlns="http://www.w3.org/2000/svg">
<g clip-path="url(#clip0_233_88)">
<path fill-rule="evenodd" clip-rule="evenodd" d="M16.3678 33.9565L17.0633 34.4942C17.0563 34.5408 17.0526 34.5883 17.0526 34.6362V35.5395C17.0526 35.7939 16.8513 36.0002 16.603 36.0002H8.66012C8.41182 36.0002 8.21052 35.7939 8.21052 35.5395V34.6362C8.21052 34.3471 8.07813 34.0748 7.85295 33.9007L6.35757 32.7446C6.13239 32.5705 6 32.2982 6 32.0091V26.5761C6 23.6411 7.83213 21.1173 10.4199 20.211C9.26191 19.2474 8.36039 17.6719 8.36039 16.1376C8.36039 13.6869 10.2727 11.7002 12.6316 11.7002C14.9905 11.7002 16.9028 13.6869 16.9028 16.1376C16.9028 17.6719 16.0012 19.2474 14.8433 20.211C15.6791 20.5038 16.4362 20.9653 17.0781 21.5549C16.0359 22.95 15.421 24.6947 15.421 26.5761V32.0091C15.421 32.7744 15.7715 33.4955 16.3678 33.9565ZM12.2297 20.2224C11.7857 20.2224 11.4414 20.6198 11.494 21.0714L11.9834 25.2759C12.0225 25.6123 12.301 25.8656 12.6316 25.8656C12.9622 25.8656 13.2406 25.6123 13.2798 25.2759L13.7692 21.0714C13.8217 20.6198 13.4774 20.2224 13.0335 20.2224H12.2297Z" fill="#0B192C"/>
<path fill-rule="evenodd" clip-rule="evenodd" d="M33.1567 20.211C32.3208 20.5038 31.5638 20.9653 30.9219 21.5549C31.964 22.95 32.579 24.6947 32.579 26.5761V32.0091C32.579 32.7744 32.2284 33.4955 31.632 33.9565L30.9366 34.4942C30.9437 34.5408 30.9473 34.5883 30.9473 34.6362V35.5395C30.9473 35.7939 31.1486 36.0002 31.3969 36.0002H39.3398C39.5881 36.0002 39.7894 35.7939 39.7894 35.5395V34.6362C39.7894 34.3471 39.9218 34.0748 40.147 33.9007L41.6424 32.7446C41.8676 32.5705 42 32.2982 42 32.0091V26.5761C42 23.6411 40.1678 21.1173 37.5801 20.211C38.738 19.2474 39.6396 17.6719 39.6396 16.1376C39.6396 13.6869 37.7273 11.7002 35.3684 11.7002C33.0095 11.7002 31.0972 13.6869 31.0972 16.1376C31.0972 17.6719 31.9987 19.2474 33.1567 20.211ZM34.9665 20.2224C34.5225 20.2224 34.1782 20.6198 34.2308 21.0714L34.7202 25.2759C34.7593 25.6123 35.0377 25.8656 35.3684 25.8656C35.699 25.8656 35.9774 25.6123 36.0166 25.2759L36.5059 21.0714C36.5585 20.6198 36.2142 20.2224 35.7703 20.2224H34.9665Z" fill="#0B192C"/>
<path d="M26.2117 20.211C27.3696 19.2474 28.2712 17.6719 28.2712 16.1376C28.2712 13.6869 26.3589 11.7002 24 11.7002C21.6411 11.7002 19.7288 13.6869 19.7288 16.1376C19.7288 17.6719 20.6303 19.2474 21.7883 20.211C19.2005 21.1173 17.3684 23.6411 17.3684 26.5761V32.0091C17.3684 32.2982 17.5008 32.5705 17.726 32.7446L19.2214 33.9007C19.4465 34.0748 19.5789 34.3471 19.5789 34.6362V35.5395C19.5789 35.7939 19.7802 36.0002 20.0285 36.0002H27.9714C28.2197 36.0002 28.421 35.7939 28.421 35.5395V34.6362C28.421 34.3471 28.5534 34.0748 28.7786 33.9007L30.274 32.7446C30.4992 32.5705 30.6316 32.2982 30.6316 32.0091V26.5761C30.6316 23.6411 28.7994 21.1173 26.2117 20.211Z" fill="#0B192C"/>
<path d="M25.144 25.9237C24.9552 25.9237 24.8021 25.7784 24.8021 25.5991V23.7257C24.8021 23.427 24.4131 23.2868 24.2044 23.5103L20.6111 27.3571C20.0243 27.9854 20.4941 28.9771 21.3786 28.9771H22.8559C23.0447 28.9771 23.1978 29.1224 23.1978 29.3017V31.1751C23.1978 31.4738 23.5868 31.614 23.7956 31.3905L27.3888 27.5437C27.9756 26.9154 27.5058 25.9237 26.6213 25.9237H25.144Z" fill="#BAF246"/>
<path d="M47 11V37C47 42.5228 42.5228 47 37 47H11C5.47715 47 1 42.5228 1 37V11C1 5.47715 5.47715 1 11 1H12H36H37C42.5228 1 47 5.47715 47 11Z" stroke="url(#paint0_linear_233_88)" stroke-width="2"/>
<path d="M47 11V37C47 42.5228 42.5228 47 37 47H11C5.47715 47 1 42.5228 1 37V11C1 5.47715 5.47715 1 11 1H12H36H37C42.5228 1 47 5.47715 47 11Z" stroke="url(#paint1_linear_233_88)" stroke-width="2"/>
</g>
<defs>
<linearGradient id="paint0_linear_233_88" x1="3.10558e-06" y1="54" x2="21" y2="29" gradientUnits="userSpaceOnUse">
<stop stop-color="#0B192C"/>
<stop offset="1" stop-color="#0B192C" stop-opacity="0"/>
</linearGradient>
<linearGradient id="paint1_linear_233_88" x1="60.5" y1="-7" x2="24" y2="24" gradientUnits="userSpaceOnUse">
<stop stop-color="#0B192C"/>
<stop offset="1" stop-color="#0B192C" stop-opacity="0"/>
</linearGradient>
<clipPath id="clip0_233_88">
<rect width="48" height="48" fill="white"/>
</clipPath>
</defs>
</svg>
